<svg width="40" height="40" viewBox="0 0 40 40" fill="none" xmlns="http://www.w3.org/2000/svg">
<path fill-rule="evenodd" clip-rule="evenodd" d="M12.8303 10.3187L13.0797 10.5254L19.998 17.4478L26.9177 10.5294C27.2358 10.2107 27.6616 10.0225 28.1114 10.0019C28.5612 9.98126 29.0025 10.1297 29.3484 10.4179C29.6944 10.7062 29.92 11.1134 29.9808 11.5596C30.0417 12.0057 29.9334 12.4585 29.6773 12.8289L29.4706 13.0823L22.5482 19.9993L29.4706 26.9177C29.7893 27.2357 29.9775 27.6616 29.9981 28.1114C30.0187 28.5612 29.8703 29.0025 29.5821 29.3484C29.2938 29.6944 28.8866 29.9199 28.4404 29.9808C27.9943 30.0416 27.5415 29.9334 27.1711 29.6773L26.9177 29.4705L20.0007 22.5468L13.0797 29.4692C12.7616 29.7879 12.3358 29.9761 11.8859 29.9967C11.4361 30.0174 10.9949 29.869 10.6489 29.5807C10.303 29.2925 10.0774 28.8852 10.0165 28.4391C9.95569 27.9929 10.064 27.5401 10.3201 27.1697L10.5268 26.9163L17.4491 19.998L10.5308 13.0783C10.2159 12.7598 10.0308 12.3354 10.0116 11.8879C9.99239 11.4404 10.1404 11.0017 10.4269 10.6574C10.7133 10.313 11.1177 10.0876 11.5612 10.025C12.0047 9.96237 12.4557 10.0671 12.8263 10.3187H12.8303Z" fill="white" fill-opacity="0.8"/>
</svg>
