<svg width="40" height="41" viewBox="0 0 40 41" fill="none" xmlns="http://www.w3.org/2000/svg">
<path d="M13.3333 36.2002C8.8889 36.2002 4.39779 31.7091 4.39779 27.2646C4.39779 26.6502 3.94779 26.1535 3.33335 26.1535C2.7189 26.1535 2.17557 26.6502 2.17557 27.2646C2.17557 33.9313 6.66668 38.4224 13.3333 38.4224C13.9478 38.4224 14.4445 37.8791 14.4445 37.2646C14.4445 36.6502 13.9478 36.2002 13.3333 36.2002Z" fill="#5DADEC"/>
<path d="M7.77778 38.3757C4.44444 38.3757 2.22222 36.1535 2.22222 32.8201C2.22222 32.5254 2.10516 32.2428 1.89679 32.0345C1.68841 31.8261 1.4058 31.709 1.11111 31.709C0.816426 31.709 0.533811 31.8261 0.325437 32.0345C0.117063 32.2428 0 32.5254 0 32.8201C0 37.2646 3.33333 40.5979 7.77778 40.5979C8.07246 40.5979 8.35508 40.4808 8.56345 40.2725C8.77183 40.0641 8.88889 39.7815 8.88889 39.4868C8.88889 39.1921 8.77183 38.9095 8.56345 38.7011C8.35508 38.4927 8.07246 38.3757 7.77778 38.3757ZM26.6667 2.82013C26.372 2.82013 26.0894 2.93719 25.881 3.14557C25.6726 3.35394 25.5556 3.63656 25.5556 3.93124C25.5556 4.22593 25.6726 4.50854 25.881 4.71691C26.0894 4.92529 26.372 5.04235 26.6667 5.04235C31.1111 5.04235 35.5556 9.03013 35.5556 13.9312C35.5556 14.2259 35.6726 14.5085 35.881 14.7169C36.0894 14.9253 36.372 15.0424 36.6667 15.0424C36.9614 15.0424 37.244 14.9253 37.4523 14.7169C37.6607 14.5085 37.7778 14.2259 37.7778 13.9312C37.7778 7.80457 33.3333 2.82013 26.6667 2.82013Z" fill="#5DADEC"/>
<path d="M32.2222 0.644592C31.6089 0.644592 31.1111 1.0957 31.1111 1.70904C31.1111 2.32237 31.6089 2.86681 32.2222 2.86681C35.5556 2.86681 37.7311 5.33904 37.7311 8.3757C37.7311 8.98904 38.2744 9.48681 38.8889 9.48681C39.5033 9.48681 39.9533 8.98904 39.9533 8.3757C39.9533 4.11237 36.6667 0.644592 32.2222 0.644592Z" fill="#5DADEC"/>
</svg>
